<svg width="300" height="300" xmlns="http://www.w3.org/2000/svg">
 <defs>
  <style>.cls-1{fill:#3c3c3b;}.cls-2{fill:#ec862a;}.cls-3{fill:#389236;}</style>
 </defs>
 <title>Logo EIG</title>
 <g>
  <title>background</title>
  <rect fill="none" id="canvas_background" height="302" width="302" y="-1" x="-1"/>
 </g>
 <g>
  <title>Layer 1</title>
  <rect y="26" id="svg_30" rx="24.9" height="49.81" width="49.81" x="98.85" class="cls-2"/>
  <rect id="svg_31" rx="24.9" height="49.81" width="49.81" y="90.54" x="226.96" class="cls-2"/>
  <path id="svg_32" d="m156.279999,88.74l6.19,-6a24.9,24.9 0 0 1 17.28,-7l8.06,0a24.91,24.91 0 0 0 24.91,-24.81l0,0a24.9,24.9 0 0 0 -24.91,-24.9l0,0a24.9,24.9 0 0 0 -24.9,24.9l0,7.86a24.92,24.92 0 0 1 -7.62,17.94l-7.13,6.86a24.87,24.87 0 0 1 -17.28,7l-7.13,0a24.9,24.9 0 0 0 -24.9,24.9l0,0a24.9,24.9 0 0 0 24.9,24.9l8.07,0a24.89,24.89 0 0 1 18,7.72l6.18,6.48a24.9,24.9 0 0 1 6.89,17.19l0,8.25a24.9,24.9 0 0 0 24.9,24.9l0,0a24.9,24.9 0 0 0 24.91,-24.9l0,0a24.91,24.91 0 0 0 -24.91,-24.91l-7.68,0a24.9,24.9 0 0 1 -18,-7.71l-6.57,-6.89a24.89,24.89 0 0 1 -6.92,-17.24l0,-16.61a24.92,24.92 0 0 1 7.66,-17.93z" class="cls-3"/>
  <path id="svg_33" d="m226.679999,147.93l-6.56,-6.48a24.87,24.87 0 0 1 -7.4,-17.71l0,-8.25a24.9,24.9 0 0 0 -24.91,-24.9l0,0a24.9,24.9 0 0 0 -24.9,24.9l0,0a24.9,24.9 0 0 0 24.9,24.9l7.69,0a24.92,24.92 0 0 1 17.5,7.19l6.57,6.49a24.93,24.93 0 0 1 7.4,17.71l0,8.25a24.9,24.9 0 0 0 24.9,24.9l0,0a24.9,24.9 0 0 0 24.91,-24.9l0,0a24.91,24.91 0 0 0 -24.91,-24.91l-7.69,0a24.88,24.88 0 0 1 -17.5,-7.19z" class="cls-3"/>
  <path id="svg_34" d="m98.829999,212.09l-7.21,-7.37a24.88,24.88 0 0 1 -7,-17.39l0,-7.35a24.91,24.91 0 0 0 -25,-24.91l0,0a24.9,24.9 0 0 0 -24.9,24.91l0,0a24.9,24.9 0 0 0 24.9,24.95l8.56,0a24.9,24.9 0 0 1 17.83,7.52l5.72,5.87a24.88,24.88 0 0 1 7.08,17.38l0,8.86a24.9,24.9 0 0 0 24.9,24.91l0,0a24.91,24.91 0 0 0 24.91,-24.96l0,0a24.9,24.9 0 0 0 -24.91,-24.9l-7.09,0a24.9,24.9 0 0 1 -17.79,-7.52z" class="cls-3"/>
  <path id="svg_35" d="m163.079999,212.25l-7.19,-7.24a24.93,24.93 0 0 1 -7.27,-17.55l0,-7.48a24.91,24.91 0 0 0 -24.91,-24.91l-7.07,0a24.91,24.91 0 0 1 -17.67,-7.35l-7.21,-7.27a24.85,24.85 0 0 1 -7.14,-17.52l0,-7.47a24.9,24.9 0 0 0 -25,-24.92l0,0a24.9,24.9 0 0 0 -24.9,24.9l0,0a24.9,24.9 0 0 0 24.9,24.9l7.06,0a24.91,24.91 0 0 1 17.67,7.36l7.23,7.28a24.92,24.92 0 0 1 7.23,17.55l0,7.45a24.9,24.9 0 0 0 24.9,24.9l7,0a24.92,24.92 0 0 1 17.68,7.36l7.21,7.26a24.92,24.92 0 0 1 7.23,17.55l0,7.46a24.9,24.9 0 0 0 24.9,24.91l0,0a24.91,24.91 0 0 0 24.91,-24.91l0,0a24.9,24.9 0 0 0 -24.91,-24.9l-7.05,0a24.92,24.92 0 0 1 -17.6,-7.36z" class="cls-2"/>
 </g>
</svg>